<svg xmlns="http://www.w3.org/2000/svg" xmlns:xlink="http://www.w3.org/1999/xlink" width="180" zoomAndPan="magnify" viewBox="0 0 135 30.000001" height="40" preserveAspectRatio="xMidYMid meet" version="1.0"><defs><clipPath id="2a2e372ff3"><path d="M 5.082031 0 L 35.566406 0 L 35.566406 29 L 5.082031 29 Z M 5.082031 0 " clip-rule="nonzero"/></clipPath></defs><g clip-path="url(#2a2e372ff3)"><path fill="#fafffc" d="M 11.546875 0.105469 L 13.425781 1.628906 L 11.90625 3.507812 L 10.023438 1.988281 Z M 32.101562 1.316406 L 29.757812 4.871094 C 30.300781 9.285156 28.269531 9.027344 27.1875 8.347656 C 27.0625 8.398438 26.644531 8.589844 25.976562 8.953125 C 25.222656 12.582031 22.347656 11.523438 22.046875 10.84375 C 20.636719 12.957031 19.621094 13.625 18.753906 14.195312 C 18.691406 14.238281 18.628906 14.277344 18.566406 14.320312 C 17.132812 12.050781 14.789062 13.1875 14.105469 17.191406 C 13.5625 20.398438 16.5 20.242188 18.039062 19.761719 C 18.191406 20.039062 18.371094 20.792969 17.886719 21.578125 C 12.820312 28.15625 12.820312 24.449219 13.125 22.710938 C 13.609375 18.960938 12.921875 16.5625 12.519531 15.832031 C 12.445312 17.292969 12.035156 20.488281 11.007812 21.578125 C 7.605469 25.359375 11.386719 30.5 14.789062 28.382812 C 22.625 23.328125 21.527344 20.386719 20.71875 18.21875 C 20.585938 17.859375 20.457031 17.519531 20.382812 17.191406 C 20.988281 17.117188 21.667969 16.285156 22.046875 15.304688 C 24.949219 18.144531 27.289062 14.671875 28.09375 12.582031 C 28.648438 12.882812 30.089844 13.09375 31.421875 11.523438 C 32.75 9.949219 32.429688 4.0625 32.101562 1.316406 Z M 27.574219 17.191406 L 29.457031 18.714844 L 27.933594 20.59375 L 26.34375 19.308594 L 25.0625 20.898438 L 23.179688 19.375 L 24.703125 17.496094 L 26.289062 18.78125 Z M 33.621094 12.960938 L 35.503906 14.480469 L 33.984375 16.363281 L 32.394531 15.078125 L 31.109375 16.664062 L 29.226562 15.144531 L 30.75 13.261719 L 32.339844 14.546875 Z M 34.011719 16.945312 L 32.449219 15.679688 L 31.183594 17.242188 L 32.746094 18.507812 Z M 15.089844 2.300781 C 16.25 3.863281 18.144531 7.757812 16.449219 10.84375 C 14.757812 13.925781 12.367188 13.238281 11.386719 12.503906 C 10.378906 14.117188 7.757812 16.574219 5.335938 13.488281 C 4.792969 12.882812 5.765625 10.363281 6.320312 9.179688 C 6.472656 10.1875 6.96875 12.128906 7.757812 11.824219 C 8.738281 11.445312 10.78125 9.179688 7.304688 6.609375 C 8.589844 5.929688 11.234375 5.324219 13.425781 9.40625 C 13.652344 9.785156 15.46875 9.859375 13.878906 7.136719 C 14.058594 6.652344 14.222656 6.265625 14.367188 5.925781 C 14.828125 4.828125 15.089844 4.203125 15.089844 2.300781 Z M 15.089844 2.300781 " fill-opacity="1" fill-rule="evenodd"/><path fill="#fafffc" d="M 11.535156 0 L 13.535156 1.617188 L 11.917969 3.613281 L 9.917969 2 Z M 11.558594 0.210938 L 10.132812 1.976562 L 11.894531 3.402344 L 13.320312 1.640625 Z M 32.152344 1.101562 L 32.175781 1.308594 C 32.339844 2.683594 32.503906 4.84375 32.457031 6.863281 C 32.4375 7.871094 32.363281 8.84375 32.207031 9.664062 C 32.058594 10.484375 31.824219 11.164062 31.480469 11.570312 C 30.179688 13.105469 28.765625 12.980469 28.132812 12.6875 C 27.71875 13.726562 26.941406 15.085938 25.902344 15.851562 C 25.367188 16.246094 24.761719 16.488281 24.097656 16.445312 C 23.460938 16.40625 22.78125 16.101562 22.074219 15.433594 C 21.886719 15.894531 21.636719 16.316406 21.355469 16.636719 C 21.085938 16.953125 20.777344 17.183594 20.476562 17.253906 C 20.550781 17.550781 20.667969 17.859375 20.792969 18.195312 L 20.792969 18.199219 C 21.195312 19.28125 21.679688 20.582031 21.066406 22.246094 C 20.453125 23.90625 18.753906 25.917969 14.828125 28.445312 C 13.957031 28.988281 13.0625 29.066406 12.261719 28.816406 C 11.460938 28.566406 10.761719 27.992188 10.28125 27.230469 C 9.320312 25.710938 9.226562 23.445312 10.953125 21.527344 C 11.199219 21.265625 11.414062 20.871094 11.597656 20.398438 C 11.777344 19.929688 11.925781 19.386719 12.046875 18.828125 C 12.285156 17.714844 12.40625 16.554688 12.445312 15.828125 L 12.457031 15.5625 L 12.585938 15.796875 C 13 16.542969 13.683594 18.960938 13.199219 22.722656 L 13.199219 22.726562 C 13.125 23.15625 13.066406 23.707031 13.105469 24.1875 C 13.121094 24.429688 13.164062 24.648438 13.234375 24.824219 C 13.304688 25 13.402344 25.128906 13.527344 25.199219 C 13.65625 25.265625 13.824219 25.28125 14.054688 25.214844 C 14.28125 25.144531 14.566406 24.988281 14.917969 24.714844 C 15.617188 24.171875 16.5625 23.175781 17.824219 21.535156 C 18.261719 20.824219 18.132812 20.148438 18 19.855469 C 17.226562 20.085938 16.125 20.234375 15.265625 19.929688 C 14.824219 19.777344 14.441406 19.5 14.207031 19.050781 C 13.976562 18.601562 13.894531 17.992188 14.03125 17.179688 C 14.375 15.167969 15.136719 13.855469 16.015625 13.339844 C 16.457031 13.078125 16.929688 13.019531 17.386719 13.175781 C 17.820312 13.328125 18.234375 13.675781 18.589844 14.214844 C 18.632812 14.1875 18.671875 14.160156 18.714844 14.132812 C 19.578125 13.566406 20.582031 12.902344 21.984375 10.800781 L 22.058594 10.6875 L 22.113281 10.8125 C 22.144531 10.882812 22.214844 10.964844 22.316406 11.046875 C 22.421875 11.128906 22.554688 11.207031 22.710938 11.273438 C 23.023438 11.410156 23.421875 11.488281 23.832031 11.4375 C 24.242188 11.386719 24.664062 11.207031 25.03125 10.820312 C 25.398438 10.433594 25.714844 9.835938 25.902344 8.9375 L 25.910156 8.902344 L 25.941406 8.886719 C 26.609375 8.523438 27.027344 8.328125 27.160156 8.277344 L 27.195312 8.261719 L 27.226562 8.285156 C 27.492188 8.449219 27.8125 8.589844 28.132812 8.636719 C 28.453125 8.6875 28.773438 8.644531 29.039062 8.457031 C 29.308594 8.269531 29.535156 7.929688 29.664062 7.355469 C 29.792969 6.78125 29.816406 5.976562 29.683594 4.878906 L 29.679688 4.851562 Z M 29.835938 4.886719 C 29.96875 5.980469 29.945312 6.796875 29.8125 7.386719 C 29.679688 7.984375 29.433594 8.367188 29.125 8.582031 C 28.820312 8.796875 28.457031 8.839844 28.109375 8.785156 C 27.777344 8.734375 27.449219 8.597656 27.179688 8.433594 C 27.027344 8.496094 26.636719 8.679688 26.042969 9 C 25.851562 9.898438 25.527344 10.519531 25.140625 10.925781 C 24.75 11.339844 24.292969 11.535156 23.851562 11.589844 C 23.410156 11.640625 22.984375 11.554688 22.652344 11.414062 C 22.484375 11.34375 22.339844 11.257812 22.222656 11.164062 C 22.152344 11.105469 22.089844 11.046875 22.042969 10.984375 C 20.660156 13.03125 19.65625 13.695312 18.796875 14.257812 C 18.734375 14.300781 18.671875 14.34375 18.609375 14.382812 L 18.546875 14.425781 L 18.503906 14.359375 C 18.152344 13.804688 17.746094 13.460938 17.335938 13.320312 C 16.925781 13.179688 16.5 13.226562 16.09375 13.46875 C 15.269531 13.953125 14.519531 15.210938 14.183594 17.207031 C 14.046875 17.996094 14.128906 18.570312 14.34375 18.980469 C 14.554688 19.386719 14.902344 19.644531 15.316406 19.789062 C 16.152344 20.082031 17.253906 19.929688 18.015625 19.691406 L 18.074219 19.671875 L 18.105469 19.726562 C 18.265625 20.023438 18.453125 20.804688 17.953125 21.617188 L 17.949219 21.621094 L 17.949219 21.625 C 16.679688 23.269531 15.726562 24.277344 15.011719 24.835938 C 14.652344 25.113281 14.351562 25.28125 14.097656 25.359375 C 13.839844 25.4375 13.628906 25.421875 13.457031 25.332031 C 13.289062 25.238281 13.171875 25.074219 13.09375 24.878906 C 13.015625 24.683594 12.972656 24.449219 12.953125 24.199219 C 12.917969 23.703125 12.972656 23.136719 13.050781 22.699219 C 13.484375 19.332031 12.96875 17.066406 12.578125 16.128906 C 12.523438 16.859375 12.40625 17.878906 12.195312 18.859375 C 12.074219 19.421875 11.921875 19.972656 11.738281 20.453125 C 11.550781 20.933594 11.328125 21.347656 11.0625 21.628906 C 9.386719 23.492188 9.480469 25.6875 10.410156 27.152344 C 10.875 27.886719 11.546875 28.433594 12.304688 28.671875 C 13.0625 28.910156 13.914062 28.835938 14.746094 28.320312 C 18.660156 25.796875 20.328125 23.808594 20.925781 22.191406 C 21.519531 20.582031 21.054688 19.328125 20.648438 18.246094 L 20.648438 18.242188 C 20.515625 17.882812 20.386719 17.539062 20.308594 17.210938 L 20.289062 17.128906 L 20.375 17.117188 C 20.648438 17.082031 20.953125 16.875 21.242188 16.539062 C 21.527344 16.207031 21.789062 15.761719 21.976562 15.277344 L 22.015625 15.167969 L 22.097656 15.25 C 22.816406 15.949219 23.488281 16.253906 24.105469 16.296875 C 24.726562 16.335938 25.296875 16.113281 25.8125 15.730469 C 26.84375 14.96875 27.621094 13.59375 28.023438 12.554688 L 28.054688 12.472656 L 28.128906 12.515625 C 28.65625 12.800781 30.054688 13.019531 31.363281 11.472656 C 31.683594 11.097656 31.910156 10.449219 32.058594 9.636719 C 32.210938 8.828125 32.285156 7.863281 32.308594 6.859375 C 32.351562 4.949219 32.207031 2.90625 32.050781 1.53125 Z M 15.015625 2.070312 L 15.152344 2.253906 C 15.734375 3.042969 16.503906 4.414062 16.914062 5.980469 C 17.324219 7.546875 17.375 9.3125 16.515625 10.878906 C 15.660156 12.4375 14.621094 13.054688 13.660156 13.179688 C 12.746094 13.300781 11.917969 12.96875 11.40625 12.613281 C 10.890625 13.414062 9.992188 14.402344 8.917969 14.828125 C 8.363281 15.046875 7.761719 15.121094 7.140625 14.933594 C 6.519531 14.75 5.890625 14.316406 5.277344 13.535156 C 5.199219 13.449219 5.152344 13.328125 5.125 13.191406 C 5.101562 13.054688 5.097656 12.894531 5.109375 12.722656 C 5.132812 12.375 5.222656 11.960938 5.34375 11.53125 C 5.589844 10.671875 5.972656 9.742188 6.25 9.148438 L 6.359375 8.921875 L 6.394531 9.167969 C 6.46875 9.667969 6.632812 10.398438 6.871094 10.964844 C 6.988281 11.246094 7.125 11.480469 7.273438 11.625 C 7.421875 11.769531 7.570312 11.816406 7.730469 11.753906 C 7.960938 11.664062 8.265625 11.460938 8.535156 11.160156 C 8.800781 10.863281 9.03125 10.476562 9.128906 10.023438 C 9.320312 9.125 8.980469 7.945312 7.257812 6.667969 L 7.160156 6.597656 L 7.265625 6.542969 C 7.917969 6.195312 8.921875 5.867188 10.042969 6.148438 C 11.164062 6.429688 12.390625 7.316406 13.492188 9.367188 C 13.511719 9.398438 13.550781 9.429688 13.609375 9.460938 C 13.667969 9.488281 13.742188 9.511719 13.824219 9.519531 C 13.988281 9.535156 14.160156 9.496094 14.28125 9.378906 C 14.402344 9.265625 14.484375 9.058594 14.4375 8.703125 C 14.390625 8.347656 14.210938 7.851562 13.816406 7.175781 L 13.796875 7.144531 L 13.808594 7.109375 C 13.988281 6.625 14.152344 6.238281 14.296875 5.894531 C 14.527344 5.347656 14.707031 4.921875 14.828125 4.398438 C 14.949219 3.871094 15.015625 3.246094 15.015625 2.300781 Z M 15.164062 2.53125 C 15.71875 3.328125 16.394531 4.59375 16.765625 6.019531 C 17.171875 7.5625 17.21875 9.285156 16.386719 10.804688 C 15.546875 12.332031 14.546875 12.910156 13.640625 13.03125 C 12.734375 13.148438 11.910156 12.800781 11.429688 12.445312 L 11.363281 12.394531 L 11.320312 12.464844 C 10.820312 13.265625 9.925781 14.265625 8.863281 14.6875 C 8.332031 14.898438 7.765625 14.964844 7.183594 14.789062 C 6.601562 14.617188 5.996094 14.203125 5.398438 13.441406 L 5.394531 13.441406 L 5.394531 13.4375 C 5.335938 13.375 5.296875 13.285156 5.273438 13.164062 C 5.25 13.042969 5.246094 12.898438 5.257812 12.730469 C 5.28125 12.398438 5.367188 11.996094 5.488281 11.570312 C 5.703125 10.824219 6.023438 10.019531 6.285156 9.433594 C 6.371094 9.917969 6.523438 10.53125 6.730469 11.023438 C 6.851562 11.3125 7 11.570312 7.167969 11.734375 C 7.34375 11.902344 7.550781 11.984375 7.785156 11.894531 C 8.042969 11.796875 8.363281 11.574219 8.644531 11.261719 C 8.929688 10.949219 9.175781 10.539062 9.277344 10.054688 C 9.480469 9.097656 9.117188 7.890625 7.445312 6.621094 C 8.078125 6.308594 8.992188 6.039062 10.007812 6.292969 C 11.074219 6.5625 12.269531 7.414062 13.359375 9.441406 L 13.363281 9.445312 C 13.402344 9.507812 13.46875 9.558594 13.542969 9.597656 C 13.621094 9.632812 13.710938 9.660156 13.808594 9.667969 C 14 9.6875 14.222656 9.644531 14.386719 9.488281 C 14.550781 9.328125 14.636719 9.066406 14.585938 8.683594 C 14.535156 8.304688 14.351562 7.800781 13.964844 7.128906 C 14.136719 6.664062 14.296875 6.289062 14.4375 5.953125 C 14.667969 5.40625 14.847656 4.96875 14.972656 4.429688 C 15.089844 3.9375 15.15625 3.359375 15.164062 2.53125 Z M 33.613281 12.851562 L 35.609375 14.46875 L 33.992188 16.46875 L 32.40625 15.183594 L 31.121094 16.769531 L 29.121094 15.152344 L 30.738281 13.15625 L 32.328125 14.441406 Z M 33.632812 13.066406 L 32.351562 14.652344 L 30.761719 13.367188 L 29.335938 15.132812 L 31.097656 16.558594 L 32.382812 14.96875 L 33.972656 16.253906 L 35.398438 14.492188 Z M 32.4375 15.574219 L 34.117188 16.933594 L 32.757812 18.613281 L 31.078125 17.253906 Z M 32.460938 15.789062 L 31.292969 17.230469 L 32.738281 18.402344 L 33.90625 16.957031 Z M 27.5625 17.085938 L 29.5625 18.703125 L 27.945312 20.703125 L 26.355469 19.417969 L 25.074219 21.003906 L 23.074219 19.386719 L 24.691406 17.390625 L 26.277344 18.675781 Z M 27.585938 17.300781 L 26.300781 18.886719 L 24.710938 17.601562 L 23.285156 19.367188 L 25.050781 20.792969 L 26.332031 19.203125 L 27.921875 20.488281 L 29.347656 18.726562 Z M 27.585938 17.300781 " fill-opacity="1" fill-rule="evenodd"/></g></svg>