<?xml version="1.0" standalone="no"?>
<!DOCTYPE svg PUBLIC "-//W3C//DTD SVG 20010904//EN"
 "http://www.w3.org/TR/2001/REC-SVG-20010904/DTD/svg10.dtd">
<svg version="1.0" xmlns="http://www.w3.org/2000/svg"
 width="48.000000pt" height="48.000000pt" viewBox="0 0 48.000000 48.000000"
 preserveAspectRatio="xMidYMid meet">

<g transform="translate(0.000000,48.000000) scale(0.100000,-0.100000)"
fill="#000000" stroke="none">
<path d="M92 447 c-10 -11 -9 -17 3 -27 24 -20 45 4 24 26 -14 13 -17 13 -27
1z"/>
<path d="M398 419 c-9 -14 -18 -39 -20 -55 -2 -23 -9 -30 -30 -32 -16 -2 -30
-11 -33 -23 -4 -12 -15 -19 -33 -19 -17 0 -32 -8 -40 -21 -10 -16 -19 -19 -41
-14 -34 7 -52 -12 -54 -57 -2 -29 1 -33 26 -36 33 -4 34 -21 2 -56 -37 -40
-45 -33 -46 42 0 55 -2 63 -10 42 -6 -14 -17 -38 -25 -53 -19 -39 -18 -81 4
-100 29 -27 48 -20 103 32 49 47 51 52 46 90 -6 46 7 63 41 54 16 -4 29 3 49
26 15 17 33 31 40 31 27 0 44 46 41 111 -3 63 -3 63 -20 38z"/>
<path d="M152 387 c-7 -19 -10 -42 -6 -51 9 -23 -13 -20 -26 4 -11 21 -52 36
-70 25 -7 -4 -5 -11 5 -21 19 -20 19 -38 -1 -54 -13 -11 -16 -10 -21 9 -4 17
-8 19 -14 9 -15 -23 -10 -57 12 -68 16 -9 26 -8 47 6 15 10 37 17 48 16 27 -4
64 41 64 77 -1 14 -6 39 -13 55 l-12 28 -13 -35z"/>
<path d="M382 247 c-9 -10 -5 -19 14 -40 25 -28 50 -28 40 0 -3 8 -2 12 3 9
13 -8 23 26 12 37 -7 7 -15 6 -24 -1 -9 -8 -17 -8 -24 -1 -7 7 -13 6 -21 -4z"/>
<path d="M335 191 c-3 -5 -13 -7 -24 -4 -18 4 -38 -22 -23 -31 18 -11 77 1 80
16 3 17 -24 33 -33 19z"/>
</g>
</svg>
