<svg xmlns="http://www.w3.org/2000/svg" xmlns:xlink="http://www.w3.org/1999/xlink" width="180" zoomAndPan="magnify" viewBox="0 0 135 30.000001" height="40" preserveAspectRatio="xMidYMid meet" version="1.0"><defs><clipPath id="24a805e03f"><path d="M 5.082031 0 L 35.566406 0 L 35.566406 29 L 5.082031 29 Z M 5.082031 0 " clip-rule="nonzero"/></clipPath></defs><g clip-path="url(#24a805e03f)"><path fill="#000000" d="M 11.523438 0.105469 L 13.398438 1.628906 L 11.882812 3.507812 L 10.007812 1.988281 Z M 32.011719 1.316406 L 29.675781 4.871094 C 30.21875 9.285156 28.191406 9.027344 27.113281 8.347656 C 26.988281 8.398438 26.570312 8.589844 25.90625 8.953125 C 25.152344 12.582031 22.289062 11.523438 21.988281 10.84375 C 20.585938 12.957031 19.574219 13.625 18.710938 14.195312 C 18.648438 14.238281 18.585938 14.277344 18.523438 14.320312 C 17.089844 12.050781 14.753906 13.1875 14.078125 17.191406 C 13.535156 20.398438 16.464844 20.242188 17.996094 19.761719 C 18.144531 20.039062 18.328125 20.792969 17.84375 21.578125 C 12.796875 28.15625 12.796875 24.449219 13.097656 22.710938 C 13.578125 18.960938 12.898438 16.5625 12.496094 15.832031 C 12.417969 17.292969 12.011719 20.488281 10.988281 21.578125 C 7.597656 25.359375 11.363281 30.5 14.753906 28.382812 C 22.566406 23.328125 21.472656 20.386719 20.667969 18.21875 C 20.535156 17.859375 20.40625 17.519531 20.332031 17.191406 C 20.933594 17.117188 21.613281 16.285156 21.988281 15.304688 C 24.882812 18.144531 27.214844 14.671875 28.015625 12.582031 C 28.570312 12.882812 30.007812 13.09375 31.332031 11.523438 C 32.660156 9.949219 32.335938 4.0625 32.011719 1.316406 Z M 27.5 17.191406 L 29.375 18.714844 L 27.859375 20.59375 L 26.273438 19.308594 L 24.996094 20.898438 L 23.121094 19.375 L 24.636719 17.496094 L 26.21875 18.78125 Z M 33.527344 12.960938 L 35.402344 14.480469 L 33.886719 16.363281 L 32.300781 15.078125 L 31.023438 16.664062 L 29.148438 15.144531 L 30.664062 13.261719 L 32.246094 14.546875 Z M 33.914062 16.945312 L 32.359375 15.679688 L 31.097656 17.242188 L 32.65625 18.507812 Z M 15.058594 2.300781 C 16.210938 3.863281 18.101562 7.757812 16.414062 10.84375 C 14.726562 13.925781 12.34375 13.238281 11.363281 12.503906 C 10.359375 14.117188 7.746094 16.574219 5.335938 13.488281 C 4.792969 12.882812 5.761719 10.363281 6.316406 9.179688 C 6.464844 10.1875 6.964844 12.128906 7.746094 11.824219 C 8.726562 11.445312 10.761719 9.179688 7.296875 6.609375 C 8.578125 5.929688 11.214844 5.324219 13.398438 9.40625 C 13.625 9.785156 15.433594 9.859375 13.851562 7.136719 C 14.03125 6.652344 14.191406 6.265625 14.335938 5.925781 C 14.792969 4.828125 15.058594 4.203125 15.058594 2.300781 Z M 15.058594 2.300781 " fill-opacity="1" fill-rule="evenodd"/><path fill="#000000" d="M 11.511719 0 L 13.503906 1.617188 L 11.894531 3.613281 L 9.902344 2 Z M 11.535156 0.210938 L 10.113281 1.976562 L 11.871094 3.402344 L 13.292969 1.640625 Z M 32.0625 1.101562 L 32.085938 1.308594 C 32.25 2.683594 32.410156 4.84375 32.367188 6.863281 C 32.34375 7.871094 32.269531 8.84375 32.117188 9.664062 C 31.964844 10.484375 31.734375 11.164062 31.390625 11.570312 C 30.097656 13.105469 28.683594 12.980469 28.058594 12.6875 C 27.644531 13.726562 26.867188 15.085938 25.832031 15.851562 C 25.300781 16.246094 24.695312 16.488281 24.035156 16.445312 C 23.398438 16.40625 22.722656 16.101562 22.019531 15.433594 C 21.832031 15.894531 21.578125 16.316406 21.300781 16.636719 C 21.03125 16.953125 20.726562 17.183594 20.425781 17.253906 C 20.5 17.550781 20.613281 17.859375 20.738281 18.195312 L 20.738281 18.199219 C 21.140625 19.28125 21.625 20.582031 21.015625 22.246094 C 20.402344 23.90625 18.707031 25.917969 14.796875 28.445312 C 13.929688 28.988281 13.035156 29.066406 12.238281 28.816406 C 11.441406 28.566406 10.742188 27.992188 10.265625 27.230469 C 9.304688 25.710938 9.210938 23.445312 10.933594 21.527344 C 11.179688 21.265625 11.394531 20.871094 11.574219 20.398438 C 11.757812 19.929688 11.90625 19.386719 12.023438 18.828125 C 12.261719 17.714844 12.382812 16.554688 12.417969 15.828125 L 12.433594 15.5625 L 12.5625 15.796875 C 12.972656 16.542969 13.65625 18.960938 13.171875 22.722656 L 13.171875 22.726562 C 13.097656 23.15625 13.042969 23.707031 13.078125 24.1875 C 13.09375 24.429688 13.136719 24.648438 13.207031 24.824219 C 13.277344 25 13.375 25.128906 13.5 25.199219 C 13.625 25.265625 13.796875 25.28125 14.023438 25.214844 C 14.25 25.144531 14.535156 24.988281 14.882812 24.714844 C 15.582031 24.171875 16.523438 23.175781 17.78125 21.535156 C 18.214844 20.824219 18.089844 20.148438 17.957031 19.855469 C 17.1875 20.085938 16.089844 20.234375 15.234375 19.929688 C 14.792969 19.777344 14.410156 19.5 14.179688 19.050781 C 13.945312 18.601562 13.867188 17.992188 14.003906 17.179688 C 14.34375 15.167969 15.101562 13.855469 15.980469 13.339844 C 16.421875 13.078125 16.890625 13.019531 17.34375 13.175781 C 17.777344 13.328125 18.191406 13.675781 18.542969 14.214844 C 18.585938 14.1875 18.628906 14.160156 18.667969 14.132812 L 18.671875 14.132812 C 19.527344 13.566406 20.53125 12.902344 21.925781 10.800781 L 22.003906 10.6875 L 22.058594 10.8125 C 22.089844 10.882812 22.15625 10.964844 22.261719 11.046875 C 22.363281 11.128906 22.496094 11.207031 22.652344 11.273438 C 22.964844 11.410156 23.359375 11.488281 23.769531 11.4375 C 24.175781 11.386719 24.597656 11.207031 24.964844 10.820312 C 25.332031 10.433594 25.648438 9.835938 25.832031 8.9375 L 25.839844 8.902344 L 25.871094 8.886719 C 26.535156 8.523438 26.957031 8.328125 27.085938 8.277344 L 27.121094 8.261719 L 27.152344 8.285156 C 27.417969 8.449219 27.738281 8.589844 28.058594 8.636719 C 28.375 8.6875 28.691406 8.644531 28.960938 8.457031 C 29.226562 8.269531 29.453125 7.929688 29.582031 7.355469 C 29.710938 6.78125 29.734375 5.976562 29.601562 4.878906 L 29.597656 4.851562 Z M 29.753906 4.886719 C 29.886719 5.980469 29.859375 6.796875 29.730469 7.386719 C 29.597656 7.984375 29.351562 8.367188 29.046875 8.582031 C 28.738281 8.796875 28.378906 8.839844 28.035156 8.785156 C 27.703125 8.734375 27.375 8.597656 27.105469 8.433594 C 26.953125 8.496094 26.566406 8.679688 25.972656 9 C 25.78125 9.898438 25.460938 10.519531 25.074219 10.925781 C 24.683594 11.339844 24.226562 11.535156 23.789062 11.589844 C 23.347656 11.640625 22.925781 11.554688 22.59375 11.414062 C 22.425781 11.34375 22.28125 11.257812 22.167969 11.164062 C 22.09375 11.105469 22.03125 11.046875 21.984375 10.984375 C 20.609375 13.03125 19.605469 13.695312 18.75 14.257812 C 18.6875 14.300781 18.625 14.34375 18.566406 14.382812 L 18.5 14.425781 L 18.460938 14.359375 C 18.109375 13.804688 17.707031 13.460938 17.296875 13.320312 C 16.886719 13.179688 16.460938 13.226562 16.054688 13.46875 C 15.238281 13.953125 14.488281 15.210938 14.152344 17.207031 C 14.019531 17.996094 14.101562 18.570312 14.3125 18.980469 C 14.523438 19.386719 14.871094 19.644531 15.285156 19.789062 C 16.117188 20.082031 17.214844 19.929688 17.972656 19.691406 L 18.03125 19.671875 L 18.0625 19.726562 C 18.222656 20.023438 18.40625 20.804688 17.910156 21.617188 L 17.90625 21.621094 L 17.90625 21.625 C 16.640625 23.269531 15.691406 24.277344 14.976562 24.835938 C 14.621094 25.113281 14.320312 25.28125 14.066406 25.359375 C 13.8125 25.4375 13.601562 25.421875 13.429688 25.332031 C 13.261719 25.238281 13.144531 25.074219 13.066406 24.878906 C 12.988281 24.683594 12.945312 24.449219 12.925781 24.199219 C 12.890625 23.703125 12.949219 23.136719 13.023438 22.699219 C 13.457031 19.332031 12.945312 17.066406 12.550781 16.128906 C 12.5 16.859375 12.382812 17.878906 12.171875 18.859375 C 12.050781 19.421875 11.902344 19.972656 11.714844 20.453125 C 11.53125 20.933594 11.308594 21.347656 11.042969 21.628906 C 9.371094 23.492188 9.46875 25.6875 10.390625 27.152344 C 10.855469 27.886719 11.523438 28.433594 12.28125 28.671875 C 13.039062 28.910156 13.886719 28.835938 14.714844 28.320312 C 18.617188 25.796875 20.277344 23.808594 20.871094 22.191406 C 21.464844 20.582031 21 19.328125 20.597656 18.246094 L 20.597656 18.242188 C 20.460938 17.882812 20.335938 17.539062 20.257812 17.210938 L 20.238281 17.128906 L 20.320312 17.117188 C 20.597656 17.082031 20.898438 16.875 21.1875 16.539062 C 21.472656 16.207031 21.734375 15.761719 21.917969 15.277344 L 21.960938 15.167969 L 22.042969 15.25 C 22.757812 15.949219 23.429688 16.253906 24.042969 16.296875 C 24.660156 16.335938 25.230469 16.113281 25.742188 15.730469 C 26.769531 14.96875 27.546875 13.59375 27.945312 12.554688 L 27.976562 12.472656 L 28.054688 12.515625 C 28.574219 12.800781 29.972656 13.019531 31.277344 11.472656 C 31.59375 11.097656 31.820312 10.449219 31.96875 9.636719 C 32.121094 8.828125 32.195312 7.863281 32.214844 6.859375 C 32.257812 4.949219 32.113281 2.90625 31.960938 1.53125 Z M 14.980469 2.070312 L 15.117188 2.253906 C 15.699219 3.042969 16.464844 4.414062 16.875 5.980469 C 17.28125 7.546875 17.335938 9.3125 16.480469 10.878906 C 15.625 12.4375 14.589844 13.054688 13.632812 13.179688 C 12.722656 13.300781 11.894531 12.96875 11.386719 12.613281 C 10.871094 13.414062 9.976562 14.402344 8.90625 14.828125 C 8.351562 15.046875 7.75 15.121094 7.132812 14.933594 C 6.515625 14.75 5.886719 14.316406 5.277344 13.535156 C 5.199219 13.449219 5.152344 13.328125 5.125 13.191406 C 5.101562 13.054688 5.097656 12.894531 5.109375 12.722656 C 5.132812 12.375 5.21875 11.960938 5.34375 11.53125 C 5.589844 10.671875 5.96875 9.742188 6.246094 9.148438 L 6.351562 8.921875 L 6.390625 9.167969 C 6.464844 9.667969 6.625 10.398438 6.863281 10.964844 C 6.984375 11.246094 7.117188 11.480469 7.265625 11.625 C 7.414062 11.769531 7.5625 11.816406 7.71875 11.753906 C 7.953125 11.664062 8.253906 11.460938 8.523438 11.160156 C 8.789062 10.863281 9.019531 10.476562 9.113281 10.023438 C 9.304688 9.125 8.96875 7.945312 7.25 6.667969 L 7.15625 6.597656 L 7.261719 6.542969 C 7.910156 6.195312 8.910156 5.867188 10.027344 6.148438 C 11.144531 6.429688 12.367188 7.316406 13.464844 9.367188 C 13.484375 9.398438 13.519531 9.429688 13.582031 9.460938 C 13.640625 9.488281 13.714844 9.511719 13.796875 9.519531 C 13.957031 9.535156 14.128906 9.496094 14.25 9.378906 C 14.371094 9.265625 14.453125 9.058594 14.40625 8.703125 C 14.359375 8.347656 14.179688 7.851562 13.785156 7.175781 L 13.769531 7.144531 L 13.78125 7.109375 C 13.960938 6.625 14.121094 6.238281 14.265625 5.894531 C 14.496094 5.347656 14.671875 4.921875 14.792969 4.398438 C 14.914062 3.871094 14.980469 3.246094 14.980469 2.300781 Z M 15.128906 2.53125 C 15.683594 3.328125 16.355469 4.59375 16.726562 6.019531 C 17.132812 7.5625 17.179688 9.285156 16.347656 10.804688 C 15.511719 12.332031 14.515625 12.910156 13.613281 13.03125 C 12.707031 13.148438 11.886719 12.800781 11.410156 12.445312 L 11.34375 12.394531 L 11.300781 12.464844 C 10.800781 13.265625 9.910156 14.265625 8.851562 14.6875 C 8.324219 14.898438 7.757812 14.964844 7.175781 14.789062 C 6.59375 14.617188 5.992188 14.203125 5.394531 13.441406 L 5.390625 13.4375 C 5.335938 13.375 5.296875 13.285156 5.273438 13.164062 C 5.25 13.042969 5.246094 12.898438 5.257812 12.730469 C 5.28125 12.398438 5.367188 11.996094 5.488281 11.570312 C 5.703125 10.824219 6.019531 10.019531 6.28125 9.433594 C 6.367188 9.917969 6.515625 10.53125 6.726562 11.023438 C 6.847656 11.3125 6.992188 11.570312 7.160156 11.734375 C 7.335938 11.902344 7.542969 11.984375 7.773438 11.894531 C 8.03125 11.796875 8.351562 11.574219 8.632812 11.261719 C 8.914062 10.949219 9.160156 10.539062 9.261719 10.054688 C 9.464844 9.097656 9.101562 7.890625 7.4375 6.621094 C 8.066406 6.308594 8.980469 6.039062 9.988281 6.292969 C 11.054688 6.5625 12.246094 7.414062 13.332031 9.441406 L 13.335938 9.445312 C 13.375 9.507812 13.441406 9.558594 13.515625 9.597656 C 13.59375 9.632812 13.683594 9.660156 13.78125 9.667969 C 13.972656 9.6875 14.195312 9.644531 14.355469 9.488281 C 14.519531 9.328125 14.605469 9.066406 14.554688 8.683594 C 14.503906 8.304688 14.320312 7.800781 13.933594 7.128906 C 14.109375 6.664062 14.265625 6.289062 14.40625 5.953125 C 14.632812 5.40625 14.816406 4.96875 14.941406 4.429688 C 15.054688 3.9375 15.121094 3.359375 15.128906 2.53125 Z M 33.515625 12.851562 L 35.507812 14.46875 L 33.898438 16.46875 L 32.3125 15.183594 L 31.035156 16.769531 L 29.042969 15.152344 L 30.652344 13.15625 L 32.238281 14.441406 Z M 33.539062 13.066406 L 32.257812 14.652344 L 30.675781 13.367188 L 29.253906 15.132812 L 31.011719 16.558594 L 32.289062 14.96875 L 33.875 16.253906 L 35.296875 14.492188 Z M 32.347656 15.574219 L 34.019531 16.933594 L 32.667969 18.613281 L 30.992188 17.253906 Z M 32.367188 15.789062 L 31.203125 17.230469 L 32.644531 18.402344 L 33.808594 16.957031 Z M 27.488281 17.085938 L 29.480469 18.703125 L 27.867188 20.703125 L 26.285156 19.417969 L 25.003906 21.003906 L 23.011719 19.386719 L 24.625 17.390625 L 26.207031 18.675781 Z M 27.511719 17.300781 L 26.230469 18.886719 L 24.648438 17.601562 L 23.226562 19.367188 L 24.984375 20.792969 L 26.261719 19.203125 L 27.847656 20.488281 L 29.269531 18.726562 Z M 27.511719 17.300781 " fill-opacity="1" fill-rule="evenodd"/></g></svg>